<svg width="568" height="418" viewBox="0 0 568 418" fill="none" xmlns="http://www.w3.org/2000/svg">
<path d="M205 96.3113V244.311L274.5 361.811H438V98.3113C441.6 87.5113 450.833 81.8113 455 80.3113C382.5 81.3113 234.8 82.7113 224 80.3113C213.2 77.9113 206.833 89.9779 205 96.3113Z" fill="#D0DAFC"/>
<path d="M253.827 23.1886H250.327H249.327C252.127 19.5886 251.161 15.022 250.327 13.1886C247.527 13.1886 247.827 9.8553 248.327 8.18863C249.127 6.58863 253.327 2.18863 255.327 0.188627C262.235 -0.902103 266.764 3.03031 268.144 4.48844C268.194 4.52709 268.253 4.59087 268.322 4.68193C268.673 5.07445 268.684 5.16393 268.327 4.68863C268.325 4.68638 268.324 4.68414 268.322 4.68193C268.27 4.62379 268.211 4.55901 268.144 4.48844C267.326 3.85858 268.886 9.89566 269.827 13.1886C270.994 14.1886 275.227 17.3886 282.827 22.1886C290.427 26.9886 288.327 30.8553 286.327 32.1886V40.6886L282.827 42.6886L277.827 31.1886V30.1886C277.827 26.5886 272.494 24.022 269.827 23.1886L263.827 22.1886L260.827 19.1886V11.6886L257.827 10.1886C257.494 9.18863 256.227 7.08863 253.827 6.68863C251.427 6.28863 251.494 11.522 251.827 14.1886L253.827 18.1886L255.327 20.6886L253.827 23.1886Z" fill="#3358C4"/>
<path d="M261.5 25C258.3 26.2 254.833 24.5 253.5 23.5L255 21V18C254.2 18.8 253.333 16.6667 253 15.5L252 14.5V13C250.8 11 252 7 253 7C254.6 5.8 257 8.5 258 10L261 12V19.5L264 22.5L261.5 25Z" fill="#FF9E81"/>
<path d="M241.5 38C242.3 39.2 235.5 49.8333 232 55L240.5 54.5C242.5 50.6667 246.9 42.9 248.5 42.5C250.1 42.1 251.5 48 252 51L271 49.5V41H272C273.2 40.6 273.833 45.5 274 48L260.5 56.5C262.5 56.5 263.667 60.1667 264 62L282.5 49.5C283.5 49 282.5 42.5 282 41.5C281.6 40.7 279.167 34.5 278 31.5C276.8 24.3 268.167 22.5 264 22.5C259.2 27.7 255 25 253.5 23H248.5C247.3 21.8 243.333 32.5 241.5 38Z" fill="#FFD641"/>
<path d="M254 62.5L260.5 56.5C262.1 56.1 263.5 60 264 62L259 64L257 66L254 65.5V62.5Z" fill="#FD9E80"/>
<path d="M245 55L217 55.5L223 74H251.5L245 55Z" fill="#D4DEE2"/>
<path d="M254 63H247.749L251.5 74L262 64H259L257 66H254V63Z" fill="#EBEEF1"/>
<path d="M236 108H228L229 122L233 121.5L236 121V108Z" fill="#EFB2AA"/>
<path d="M250 110H241.5L242 123.5L249 124L250 110Z" fill="#EFB2AA"/>
<path d="M248.5 132V124L242 123.5L239.5 130.5L238.5 133.5H247L248.5 132Z" fill="#6783D6"/>
<path d="M235.5 121L229 122L221 129.5V132.5L237 127.5L238.5 126L235.5 121Z" fill="#6783D6"/>
<path d="M251 51C251.5 51.5 247 59 246.5 59.5L247.746 63H254V62H254.5L268.5 50C262.5 50.1667 250.6 50.6 251 51Z" fill="#212F54"/>
<path d="M264 62L259 64H262L251.5 74H227L225.5 77.5V91.5L227 108H236.5L238 81.5L239 79.5H240L241 110H250C250.5 103 251.5 88.7 251.5 87.5C251.5 86.3 252.833 85.3333 253.5 85C270.7 79.8 277 72.5 278 69.5C280.8 64.7 277.167 57.3333 274.5 55L264 62Z" fill="#212F54"/>
<path d="M64.5 138.5C65.7 117.3 75.6667 93.6667 80.5 84.5C118.5 94.1 146.333 138.5 155.5 159.5L148.5 167V240H139.5C132.3 176.8 86.5 146 64.5 138.5Z" fill="#80D7FD"/>
<path d="M298 89.5H349" stroke="#EFF3FE" stroke-width="8" stroke-linecap="round" stroke-linejoin="round"/>
<path d="M364 89H391.25H418.5" stroke="#EFF3FE" stroke-width="8" stroke-linecap="round" stroke-linejoin="round"/>
<path d="M301 110H328.25H383" stroke="#EFF3FE" stroke-width="8" stroke-linecap="round" stroke-linejoin="round"/>
<path d="M298 151H325.25H385" stroke="#6783D6" stroke-width="8" stroke-linecap="round" stroke-linejoin="round"/>
<path d="M301 130H328.25H407.5" stroke="#EFF3FE" stroke-width="8" stroke-linecap="round" stroke-linejoin="round"/>
<rect x="240" y="167" width="163" height="110" fill="#EFF3FE"/>
<path d="M455 160H442.5V357.5H455V160Z" fill="#C5C9E8"/>
<path d="M480 179.5H443V356H480V179.5Z" fill="#7985CC"/>
<path d="M377.5 170.5H369.5L345 365H354.5L377.5 170.5Z" fill="#4053AC"/>
<path d="M407 170.5H398.5L374 365H382L407 170.5Z" fill="#4053AC"/>
<path d="M442 132.5V93.5C460.5 62.5 484.5 79.5 488 93.5V132.5H442Z" fill="#4053AC"/>
<path d="M85 366V289.5H120.5L100.5 366H85Z" fill="#FF9E81"/>
<g filter="url(#filter0_d)">
<path d="M397 181H376.5L375.5 189H396L397 181Z" fill="#5B678B"/>
</g>
<g filter="url(#filter1_d)">
<path d="M393.5 208H373L372 216H392.5L393.5 208Z" fill="#5B678B"/>
</g>
<g filter="url(#filter2_d)">
<path d="M386.5 263H366L365 271H385.5L386.5 263Z" fill="#5B678B"/>
</g>
<g filter="url(#filter3_d)">
<path d="M382.5 291H362L361 299H381.5L382.5 291Z" fill="#5B678B"/>
</g>
<g filter="url(#filter4_d)">
<path d="M379.5 318H359L358 326H378.5L379.5 318Z" fill="#5B678B"/>
</g>
<g filter="url(#filter5_d)">
<path d="M377.5 346H357L356 354H376.5L377.5 346Z" fill="#5B678B"/>
</g>
<path d="M139 241C137 220.2 128.167 199.667 124 192L106.5 236.5L124 279.5L133 241H139Z" fill="#D0DAFC"/>
<g filter="url(#filter6_d)">
<path d="M390.5 236H370L369 244H389.5L390.5 236Z" fill="#5B678B"/>
</g>
<path d="M86 151C76.8 141 47.8333 133.833 34.5 131.5L79 189L86 151Z" fill="#D0DAFC"/>
<path d="M80.5 191L87.5 151.5C102.3 159.1 117.333 181 123 191L104.5 232L80.5 191Z" fill="#D0DAFC"/>
<path d="M113.5 256.5L90.5 211.5H33.5L42.5 254.5L113.5 256.5Z" fill="#D0DAFC"/>
<path d="M28 161.5C27.2 153.5 30.6667 139.5 32.5 133.5L55.5 161.5H28Z" fill="#D0DAFC"/>
<path d="M57.5 163.5H27.5C25.9 173.9 30.1667 197.833 32.5 208.5L88.5 208L57.5 163.5Z" fill="#D0DAFC"/>
<path d="M114 259.5L52.5 257.5L97.5 288.5H121L122.5 284.5L114 259.5Z" fill="#D0DAFC"/>
<path d="M100.5 369L133 241.5H306.5L271 372L100.5 369Z" fill="#DFE2ED"/>
<path d="M137 312L150.5 260.5H219.5L261 330V333.5L237.5 302.5L206.5 327L173.5 282.5L137 312Z" fill="#63B5F6"/>
<ellipse cx="214.5" cy="281.5" rx="9.5" ry="8.5" fill="#FFD641"/>
<path d="M173.5 283.5L136.5 312.5L125 353H256L260.5 333.5L237.5 302.5L206.5 327L173.5 283.5Z" fill="#1A227D"/>
<path d="M278.5 261H220L260.5 330.5L278.5 261Z" fill="#87C1F8"/>
<path d="M198.5 170.5H189L181.5 240H189L198.5 170.5Z" fill="#212F54"/>
<path d="M210 239L218.5 170H226.5L218.5 239H210Z" fill="#5B678B"/>
<path d="M215.5 189.5H196V181H217.5L215.5 189.5Z" fill="#212F54"/>
<path d="M211.5 217.5H192V209H213.5L211.5 217.5Z" fill="#212F54"/>
<path d="M208 241H188V236H209.5L208 241Z" fill="#212F54"/>
<path d="M293 357.5L307 241L272.5 371.5L293 357.5Z" fill="#B0BBEE"/>
<path d="M366.5 189.5H224.5L218 239.5H243.5L246 215C246 215 252.167 210.667 254 211.5L307 243.5L333 259.5C333 259.5 334.5 267.5 333 269L302 285.5L295 346H347.5L366.5 189.5Z" fill="#EFB2AA"/>
<path d="M333 260.5L307 243.5L302 285L333 268.5C335.4 265.7 334 262 333 260.5Z" fill="#EFF3FE"/>
<path d="M246.5 215L243.5 241H302L256 212C251.6 209.6 247.833 213 246.5 215Z" fill="#EFF3FE"/>
<path d="M76.5 385L110 373L272 372L293 357.5L345.5 358.5L345 364.5H354.5L356 357.5H375L374 365H382L383 357.5H384.5H491L564.5 385H76.5Z" fill="#E3F1FC"/>
<path d="M280 395C273.2 394.2 272.833 388.333 273.5 385.5H368.5C370.1 389.5 365.5 392.833 363 394L280 395Z" fill="#7985CC"/>
<path d="M85 416C77.4 413.2 78.8333 404.5 80.5 400.5C81.7 402.1 85.6667 403.167 87.5 403.5H556.5L564 397.5C572 406.3 566 413.833 562 416.5H86.35C92.066 418.63 88.3029 417.434 85.5 416.5H86.35C85.9481 416.35 85.4993 416.184 85 416Z" fill="#8FA4E0"/>
<path d="M273.5 386H76C73.2 394.8 80.8333 401 85 403C237.667 404.333 545.8 406.2 557 403C568.2 399.8 567.333 389.333 565.5 384.5L369 386C369 390 364.667 393.667 362.5 395C337.667 395.333 286.3 395.8 279.5 395C272.7 394.2 272.667 388.667 273.5 386Z" fill="#FEFEFE"/>
<path d="M14.5 230.438C13 229.938 13 224.438 13 223.938L21.5 216.438C21.8333 216.438 22.5 215.438 22.5 211.438C22.5 207.438 26.1667 203.104 28 201.438C39 198.938 42 207.938 43 208.438C43.8 208.838 42.6667 213.938 42 216.438L43 228.438H41L36.5 226.438C36.1667 225.104 35.7 222.538 36.5 222.938C37.3 223.338 39.1667 220.771 40 219.438C39.8333 217.604 39.6 213.738 40 212.938C40.4 212.138 36.5 207.938 34.5 205.938L32.5 208.938L31.5 211.938C30.6667 212.271 28.8 212.938 28 212.938C27.2 212.938 27.6667 215.271 28 216.438L29 220.938L28 226.438C24 227.938 15.7 230.838 14.5 230.438Z" fill="#3358C4"/>
<path d="M28 212.938L27.5 213.938C27.5 215.138 28.5 216.438 29 216.938V221.938L28 226.438L23 228.438C30 236.438 38 232.938 41 228.438L36.5 226.438C36.1667 225.105 35.6 222.538 36 222.938C36.5 223.438 40.5 219.438 40 219.438C39.6 219.438 39.8333 214.771 40 212.438L34.5 205.938L32 210.438L31.5 211.938L28 212.938Z" fill="#FF9E81"/>
<path d="M41 228.438L50 230.938C52.6667 233.771 58.3 241.138 59.5 247.938C60.7 254.738 63.3333 260.438 64.5 262.438H80.5C75.5 266.105 65.2 273.338 64 272.938C62.5 272.438 60 272.938 58.5 270.938C57.3 269.338 52.3333 260.271 50 255.938C49 255.605 44.5 261.938 44 273.438L34 273.938L24.5 252.438L3 254.438C3.5 247.438 6.5 232.938 14.5 230.938C20.7921 229.365 22.754 228.72 23.0616 228.516C23.0409 228.49 23.0203 228.464 23 228.438C23.1067 228.438 23.1451 228.461 23.0616 228.516C26.1056 232.343 33.8488 237.576 41 228.438Z" fill="#FFD641"/>
<path d="M8.5 271.938L2 258.438L0 274.938L5 278.938H10.5L6.5 273.938L8.5 271.938Z" fill="#FED646"/>
<path d="M11.5 279.438L6.5 273.938L8.5 271.938L18.5 270.938L19.5 273.938L11.5 279.438Z" fill="#FF9E81"/>
<path d="M85 263.438V232.938L65.5 261.938L85 263.438Z" fill="#F4F8FD"/>
<path d="M105.5 233.438H85V246.938C87 246.138 90.5 249.271 92 250.938L105.5 233.438Z" fill="#E5E5E5"/>
<path d="M92 250.938C89.7812 248.242 87 246.438 85 246.938V260.938C89 260.438 94.2188 253.634 92 250.938Z" fill="#FF9F81"/>
<path d="M45 273.438L34 273.938L36 278.438L14 281.938L12.5 281.438C9.7 299.038 13.6667 332.438 16 346.938C18.5 363.271 23.5 395.538 23.5 393.938C23.5 392.338 29.1667 393.271 32 393.938V352.938L34 312.938H36L48.5 341.438L40 395.938H50.5C53.3 388.738 60.6667 353.604 64 336.938C64.4 318.538 51.5 286.938 45 273.438Z" fill="#212F54"/>
<path d="M32.5 395.438C30.5 392.238 25.6667 393.104 23.5 393.938L22.5 400.438L21.5 406.438L27 406.938L32.5 405.938V395.438Z" fill="white"/>
<path d="M39 403.438L40 395.938H50.5L56 401.938L60 403.438L59 407.938L41 404.438L39 403.438Z" fill="white"/>
<path d="M8.5 271.938L0 254.938L24.5 252.438L36 278.438L14 281.938L11 279.438L19.5 273.438L18.5 270.938L8.5 271.938Z" fill="#E5E5E5"/>
<defs>
<filter id="filter0_d" x="371.5" y="181" width="29.5" height="16" filterUnits="userSpaceOnUse" color-interpolation-filters="sRGB">
<feFlood flood-opacity="0" result="BackgroundImageFix"/>
<feColorMatrix in="SourceAlpha" type="matrix" values="0 0 0 0 0 0 0 0 0 0 0 0 0 0 0 0 0 0 127 0"/>
<feOffset dy="4"/>
<feGaussianBlur stdDeviation="2"/>
<feColorMatrix type="matrix" values="0 0 0 0 0 0 0 0 0 0 0 0 0 0 0 0 0 0 0.25 0"/>
<feBlend mode="normal" in2="BackgroundImageFix" result="effect1_dropShadow"/>
<feBlend mode="normal" in="SourceGraphic" in2="effect1_dropShadow" result="shape"/>
</filter>
<filter id="filter1_d" x="368" y="208" width="29.5" height="16" filterUnits="userSpaceOnUse" color-interpolation-filters="sRGB">
<feFlood flood-opacity="0" result="BackgroundImageFix"/>
<feColorMatrix in="SourceAlpha" type="matrix" values="0 0 0 0 0 0 0 0 0 0 0 0 0 0 0 0 0 0 127 0"/>
<feOffset dy="4"/>
<feGaussianBlur stdDeviation="2"/>
<feColorMatrix type="matrix" values="0 0 0 0 0 0 0 0 0 0 0 0 0 0 0 0 0 0 0.25 0"/>
<feBlend mode="normal" in2="BackgroundImageFix" result="effect1_dropShadow"/>
<feBlend mode="normal" in="SourceGraphic" in2="effect1_dropShadow" result="shape"/>
</filter>
<filter id="filter2_d" x="361" y="263" width="29.5" height="16" filterUnits="userSpaceOnUse" color-interpolation-filters="sRGB">
<feFlood flood-opacity="0" result="BackgroundImageFix"/>
<feColorMatrix in="SourceAlpha" type="matrix" values="0 0 0 0 0 0 0 0 0 0 0 0 0 0 0 0 0 0 127 0"/>
<feOffset dy="4"/>
<feGaussianBlur stdDeviation="2"/>
<feColorMatrix type="matrix" values="0 0 0 0 0 0 0 0 0 0 0 0 0 0 0 0 0 0 0.25 0"/>
<feBlend mode="normal" in2="BackgroundImageFix" result="effect1_dropShadow"/>
<feBlend mode="normal" in="SourceGraphic" in2="effect1_dropShadow" result="shape"/>
</filter>
<filter id="filter3_d" x="357" y="291" width="29.5" height="16" filterUnits="userSpaceOnUse" color-interpolation-filters="sRGB">
<feFlood flood-opacity="0" result="BackgroundImageFix"/>
<feColorMatrix in="SourceAlpha" type="matrix" values="0 0 0 0 0 0 0 0 0 0 0 0 0 0 0 0 0 0 127 0"/>
<feOffset dy="4"/>
<feGaussianBlur stdDeviation="2"/>
<feColorMatrix type="matrix" values="0 0 0 0 0 0 0 0 0 0 0 0 0 0 0 0 0 0 0.25 0"/>
<feBlend mode="normal" in2="BackgroundImageFix" result="effect1_dropShadow"/>
<feBlend mode="normal" in="SourceGraphic" in2="effect1_dropShadow" result="shape"/>
</filter>
<filter id="filter4_d" x="354" y="318" width="29.5" height="16" filterUnits="userSpaceOnUse" color-interpolation-filters="sRGB">
<feFlood flood-opacity="0" result="BackgroundImageFix"/>
<feColorMatrix in="SourceAlpha" type="matrix" values="0 0 0 0 0 0 0 0 0 0 0 0 0 0 0 0 0 0 127 0"/>
<feOffset dy="4"/>
<feGaussianBlur stdDeviation="2"/>
<feColorMatrix type="matrix" values="0 0 0 0 0 0 0 0 0 0 0 0 0 0 0 0 0 0 0.25 0"/>
<feBlend mode="normal" in2="BackgroundImageFix" result="effect1_dropShadow"/>
<feBlend mode="normal" in="SourceGraphic" in2="effect1_dropShadow" result="shape"/>
</filter>
<filter id="filter5_d" x="352" y="346" width="29.5" height="16" filterUnits="userSpaceOnUse" color-interpolation-filters="sRGB">
<feFlood flood-opacity="0" result="BackgroundImageFix"/>
<feColorMatrix in="SourceAlpha" type="matrix" values="0 0 0 0 0 0 0 0 0 0 0 0 0 0 0 0 0 0 127 0"/>
<feOffset dy="4"/>
<feGaussianBlur stdDeviation="2"/>
<feColorMatrix type="matrix" values="0 0 0 0 0 0 0 0 0 0 0 0 0 0 0 0 0 0 0.25 0"/>
<feBlend mode="normal" in2="BackgroundImageFix" result="effect1_dropShadow"/>
<feBlend mode="normal" in="SourceGraphic" in2="effect1_dropShadow" result="shape"/>
</filter>
<filter id="filter6_d" x="365" y="236" width="29.5" height="16" filterUnits="userSpaceOnUse" color-interpolation-filters="sRGB">
<feFlood flood-opacity="0" result="BackgroundImageFix"/>
<feColorMatrix in="SourceAlpha" type="matrix" values="0 0 0 0 0 0 0 0 0 0 0 0 0 0 0 0 0 0 127 0"/>
<feOffset dy="4"/>
<feGaussianBlur stdDeviation="2"/>
<feColorMatrix type="matrix" values="0 0 0 0 0 0 0 0 0 0 0 0 0 0 0 0 0 0 0.25 0"/>
<feBlend mode="normal" in2="BackgroundImageFix" result="effect1_dropShadow"/>
<feBlend mode="normal" in="SourceGraphic" in2="effect1_dropShadow" result="shape"/>
</filter>
</defs>
</svg>
