<svg width="322" height="323" viewBox="0 0 322 323" fill="none" xmlns="http://www.w3.org/2000/svg">
<path d="M109.645 80.9699L103.095 54.2053L143.638 41.7052L155.538 69.2622C175.974 67.5786 198.924 76.0617 207.844 80.5137L230.655 60.9014L257.853 84.5558L239.386 109.858C255.145 132.94 256.653 153.865 255.438 161.442L285.175 171.734L277.205 207.563L246.65 203.738C237.453 222.675 217.92 237.755 209.304 242.927L215.854 269.692L180.711 280.749L167.693 253.166C146.343 255.724 123.751 247.92 115.123 243.698L93.1911 264.001L65.089 240.774L81.7728 215.207C66.2047 191.593 64.7271 171.281 65.9343 164.076C55.6323 161.382 35.1665 155.818 35.7192 155.115C36.272 154.412 40.5346 130.174 42.5969 118.143L74.5087 121.327C79.5561 103.906 100.036 87.1637 109.645 80.9699Z" fill="#80D7FD"/>
<circle cx="160.379" cy="161.522" r="21.5" transform="rotate(-25.2655 160.379 161.522)" fill="white"/>
<circle cx="161.044" cy="161.76" r="42.5" transform="rotate(-25.2655 161.044 161.76)" stroke="#FFF9F9" stroke-width="3"/>
<circle cx="160.379" cy="161.522" r="60.5" transform="rotate(-25.2655 160.379 161.522)" stroke="#3E52AC" stroke-width="4"/>
<path d="M102.424 112.529C114.468 97.4303 150.513 72.8874 198.333 95.5071" stroke="white" stroke-width="3"/>
</svg>
