<svg width="68" height="133" viewBox="0 0 68 133" fill="none" xmlns="http://www.w3.org/2000/svg">
<path d="M14.3503 13.1994L11.8503 9.19936C11.3503 8.39936 15.3087 5.53269 17.3503 4.19936L19.3503 0.19936C19.7503 -0.60064 23.8503 1.19936 25.8503 2.19936C26.8503 2.53269 29.3503 3.39936 31.3503 4.19936C33.3503 4.99936 31.1837 7.86603 29.8503 9.19936L28.8503 8.69936L26.8503 7.19936H25.3503L24.3503 10.1994H18.8503V13.1994H14.3503Z" fill="#3358C4"/>
<path d="M18.8503 13.1993V10.1993H23.8503L25.8503 7.19934L30.3503 9.19934L28.8503 10.1993V13.6993L27.8503 14.1993L27.3503 16.1993L22.8503 15.6993L18.8503 13.1993Z" fill="#FF9E81"/>
<path d="M18.8503 16.1993V13.1993L23.3503 16.1993L27.8503 15.6993L26.8503 19.6993L24.8503 21.1993L18.8503 16.1993Z" fill="#3358C4"/>
<path d="M14.3503 13.1993V14.1993L13.8503 16.1993L20.3503 21.6993L22.3503 19.6993L18.8503 16.1993V13.1993H14.3503Z" fill="#FC9E81"/>
<path d="M11.8503 17.6993L13.8503 16.1993L20.8503 22.1993L19.3503 26.1993L11.8503 17.6993Z" fill="#385BC3"/>
<path d="M26.3504 35.1993C27.1504 33.9993 23.017 26.366 20.8504 22.6993L19.3503 26.1993L11.8503 17.6993C0.350342 25.6993 2.35036 35.6993 0.350363 47.6993C-1.24964 57.2993 3.01703 68.0327 5.35036 72.1993L22.3504 65.1993L5.85036 59.6993L3.35036 49.6993L11.3504 49.1993L25.8504 55.6993C25.6837 49.366 25.5504 36.3993 26.3504 35.1993Z" fill="#FFD641"/>
<path d="M12.3503 49.6994H3.35034L6.35034 60.1994L21.8503 65.6994L39.8503 67.1994V65.6994H45.8503V63.1994L42.8503 60.1994H39.8503L34.3503 60.6994L12.3503 49.6994Z" fill="#FF9E81"/>
<path d="M21.8503 65.1994C21.8503 66.7994 10.517 70.866 4.85034 72.6994C5.65034 78.6994 10.1837 83.1994 12.3503 84.6994L50.3503 86.1994L51.3503 121.199L60.3503 122.199L67.8503 79.6994C67.017 80.1994 65.7503 80.7994 67.3503 79.1994C68.9503 77.5994 65.3503 73.5327 63.3503 71.6994L21.8503 65.1994Z" fill="#212F54"/>
<path d="M49.3503 124.199L51.3503 121.199L60.8503 122.199V123.699L67.8503 129.699V132.199L49.8503 127.699L49.3503 124.199Z" fill="#3358C4"/>
<path d="M64.8503 48.1994H59.8503L47.3503 65.6994H45.3503H40.3503V67.6994L50.3503 68.6994L64.8503 48.1994Z" fill="#D2DBFC"/>
</svg>
